<?xml version="1.0" standalone="no"?>
<!DOCTYPE svg PUBLIC "-//W3C//DTD SVG 20010904//EN"
 "http://www.w3.org/TR/2001/REC-SVG-20010904/DTD/svg10.dtd">
<svg version="1.0" xmlns="http://www.w3.org/2000/svg"
 width="450.000000pt" height="450.000000pt" viewBox="0 0 450.000000 450.000000"
 preserveAspectRatio="xMidYMid meet">

<g transform="translate(0.000000,450.000000) scale(0.100000,-0.100000)"
fill="#000000" stroke="none">
<path d="M1990 4139 c-278 -32 -597 -146 -825 -296 -481 -317 -791 -824 -855
-1398 -35 -317 24 -678 162 -986 l30 -66 50 19 c28 10 55 17 61 15 5 -1 -10
-9 -34 -16 -70 -21 -73 -27 -43 -80 279 -486 723 -817 1255 -935 418 -92 852
-42 1235 145 99 47 104 52 105 82 1 24 3 26 6 10 5 -26 20 -29 46 -9 15 12 16
15 2 26 -9 7 -13 15 -10 18 3 3 13 -2 23 -11 16 -15 24 -11 112 51 177 125
450 418 450 482 0 17 -8 34 -18 42 -11 7 -24 23 -30 35 -14 25 -12 73 2 73 6
0 -7 9 -29 20 -22 11 -43 27 -48 35 -4 9 -12 13 -17 10 -4 -3 -11 2 -14 11 -3
9 -2 12 5 8 7 -4 9 6 7 27 -4 47 34 79 92 79 87 0 144 -105 87 -158 -13 -12
-29 -22 -35 -22 -17 0 -15 -11 9 -36 12 -13 28 -20 37 -17 10 4 13 2 8 -5 -4
-7 -3 -12 3 -12 25 0 108 157 147 280 4 11 -9 23 -42 38 -25 13 -44 25 -41 28
2 3 21 -5 41 -17 38 -22 66 -20 66 5 0 8 -10 22 -21 30 -19 13 -24 13 -36 0
-18 -18 -27 -18 -20 0 4 10 -3 13 -26 11 -44 -4 -44 -4 -27 -15 9 -6 10 -10 3
-10 -6 0 -15 5 -18 10 -3 6 -14 10 -23 10 -11 0 -6 -10 18 -35 19 -19 42 -35
51 -35 15 0 17 -4 8 -29 -6 -16 -17 -32 -26 -35 -10 -4 -13 -2 -10 8 4 11 1
13 -10 9 -12 -5 -14 -3 -8 7 6 10 4 12 -8 7 -22 -8 -49 2 -40 16 4 6 0 8 -10
4 -20 -7 -49 2 -42 13 2 4 -13 4 -35 0 -22 -4 -40 -4 -40 1 0 17 13 39 20 34
5 -3 6 3 3 13 -3 12 1 19 11 19 9 0 16 -4 16 -8 0 -6 53 -29 66 -29 14 0 -1
31 -23 51 l-28 24 25 -30 25 -30 -27 24 c-42 37 -36 50 25 53 l52 3 -40 14
c-22 8 -43 19 -47 25 -5 7 -8 3 -8 -8 0 -11 -3 -17 -6 -13 -9 8 6 48 16 42 4
-3 6 4 3 15 -4 16 -2 19 11 14 9 -3 16 -12 16 -20 0 -8 1 -14 3 -14 1 0 35
-13 75 -30 40 -16 79 -27 87 -24 11 5 13 2 9 -11 -4 -10 -1 -21 7 -26 28 -17
46 -9 56 26 10 32 10 35 -10 36 -21 1 -21 2 -2 6 11 3 23 10 27 17 11 16 10
38 -2 31 -6 -3 -10 -2 -10 3 0 6 6 12 13 15 8 3 21 40 30 84 34 158 45 350 30
506 -6 66 -6 67 -34 67 -20 0 -29 -5 -29 -16 0 -15 -10 -16 -77 -11 -51 4 -71
2 -58 -3 16 -8 13 -9 -15 -7 -31 2 -35 -1 -38 -24 -5 -42 17 -51 102 -43 42 4
76 11 76 15 0 5 5 9 10 9 6 0 10 -12 10 -27 l0 -28 -100 -3 c-97 -3 -100 -2
-116 23 -11 17 -15 37 -11 60 5 28 2 35 -11 36 -28 2 48 20 131 32 42 6 77 14
77 19 0 4 5 8 10 8 6 0 10 -7 10 -16 0 -12 6 -15 23 -10 12 3 25 6 28 6 9 0
-11 116 -41 235 -176 699 -725 1231 -1431 1389 -192 43 -431 56 -619 35z m197
-132 c6 0 9 -6 6 -14 -3 -7 -10 -10 -16 -6 -6 4 -8 0 -4 -10 8 -21 -6 -22 -22
-3 -24 29 -81 23 -81 -8 0 -5 6 -2 13 9 13 17 14 17 13 -6 -1 -19 7 -26 36
-36 57 -19 88 -43 88 -67 0 -30 -36 -67 -57 -59 -11 4 -14 3 -9 -5 5 -8 -4
-12 -31 -12 -28 0 -34 3 -23 10 11 7 5 10 -22 10 -42 0 -44 4 -23 40 11 19 14
21 15 8 0 -38 82 -52 100 -18 9 16 8 22 -5 26 -8 3 -13 9 -10 14 2 4 -8 5 -23
3 -22 -4 -24 -2 -12 7 12 9 8 10 -17 5 -28 -6 -34 -3 -47 24 -22 42 -20 56 11
81 23 18 35 20 68 15 22 -4 45 -7 52 -8z m203 -16 c16 -16 30 -27 32 -26 2 2
2 -26 2 -63 -1 -58 -5 -69 -28 -89 -27 -23 -86 -32 -86 -14 0 5 -9 12 -19 16
-11 3 -27 22 -36 41 -23 49 -12 106 27 139 39 33 73 32 108 -4z m-402 -11 c3
-8 0 -10 -8 -5 -9 5 -10 2 -5 -14 6 -20 5 -20 -19 -10 -14 7 -26 16 -26 21 0
4 -8 8 -18 8 -20 0 -42 -18 -42 -34 0 -5 7 -1 15 10 14 18 14 17 5 -9 -6 -16
-6 -26 -1 -22 5 3 12 1 16 -5 3 -5 20 -10 36 -10 57 0 117 -72 79 -95 -6 -4
-7 1 -4 12 5 14 4 15 -4 4 -6 -8 -8 -21 -4 -29 4 -11 1 -14 -12 -9 -10 4 -15
3 -11 -3 8 -13 -37 -23 -85 -18 -22 2 -41 -1 -43 -7 -2 -5 -23 -9 -46 -9 -24
1 -38 -2 -31 -6 17 -10 -29 -21 -60 -14 -20 5 -22 3 -10 -5 13 -10 13 -11 0
-11 -23 0 -44 16 -32 24 12 7 -3 63 -21 81 -7 7 -7 5 -2 -5 6 -12 5 -12 -5 -3
-7 7 -9 17 -4 25 11 17 6 49 -13 70 -13 15 -10 18 39 31 95 28 105 29 113 16
6 -8 4 -10 -5 -4 -9 6 -10 2 -5 -15 6 -20 5 -22 -18 -16 -14 3 -33 9 -43 13
-12 5 -15 3 -9 -6 5 -10 1 -12 -16 -7 -13 3 -19 3 -13 0 7 -3 10 -15 7 -27 -4
-18 -3 -20 7 -7 10 13 11 12 7 -6 -6 -26 13 -26 42 0 22 20 36 7 26 -24 -5
-15 -14 -20 -33 -18 -20 2 -27 -2 -29 -17 -1 -15 -1 -16 3 -2 9 30 20 18 19
-23 -1 -47 14 -52 50 -16 24 24 60 29 60 8 0 -26 14 -20 26 12 11 32 14 33 27
18 9 -11 11 -12 6 -2 -5 11 -1 10 13 -3 25 -21 61 -19 76 4 16 26 -9 45 -57
42 -39 -2 -39 -1 -11 7 30 9 29 9 -7 7 -33 -3 -39 1 -54 29 -16 30 -16 34 -1
57 9 14 27 27 39 29 43 7 92 0 96 -12z m619 0 c10 0 13 -6 9 -16 -6 -15 -4
-15 11 -3 17 13 17 13 1 -7 -10 -11 -18 -27 -18 -35 0 -12 2 -11 10 1 8 12 10
11 10 -7 0 -14 6 -23 15 -23 8 0 15 -2 15 -4 0 -2 -7 -20 -15 -39 -17 -40 -21
-82 -6 -59 6 11 9 9 13 -6 6 -20 -14 -32 -52 -32 -13 0 -13 1 0 10 13 8 12 10
-4 10 -15 0 -16 3 -7 14 18 22 -4 62 -25 46 -11 -10 -15 -9 -19 2 -3 8 -12 15
-19 15 -8 0 -12 -7 -8 -15 3 -10 1 -13 -6 -8 -7 4 -12 1 -12 -8 0 -9 4 -16 9
-16 5 0 11 -7 15 -15 3 -9 0 -15 -10 -15 -8 0 -12 4 -9 10 4 6 -6 7 -26 3 -23
-4 -30 -3 -25 5 4 7 3 12 -2 12 -6 0 5 15 24 34 28 28 33 40 28 60 -4 16 -2
26 5 27 6 1 17 2 24 3 6 0 16 16 22 34 6 21 14 31 23 27 7 -3 20 -5 29 -5z
m-170 -77 c-3 -10 -5 -4 -5 12 0 17 2 24 5 18 2 -7 2 -21 0 -30z m-863 -39
c22 -22 20 -51 -5 -72 -12 -9 -27 -23 -35 -30 -8 -7 -14 -10 -14 -6 0 4 -2 5
-5 2 -13 -13 18 -67 43 -76 27 -9 27 -9 -11 -16 -21 -4 -35 -11 -32 -16 3 -6
0 -7 -8 -4 -8 3 -13 13 -11 22 6 23 -19 68 -35 64 -8 -2 -10 4 -6 18 7 23 -12
80 -26 80 -23 0 -5 18 34 32 54 21 92 22 111 2z m1270 -54 c14 -5 26 -17 26
-25 0 -9 5 -13 10 -10 6 3 10 1 10 -4 0 -14 -2 -14 -50 5 -22 9 -40 22 -40 30
0 17 10 17 44 4z m272 -23 c45 -29 49 -35 49 -73 l1 -41 -46 3 c-25 2 -53 4
-63 4 -9 1 -15 5 -12 11 4 5 4 9 1 9 -14 0 -34 -58 -29 -85 5 -26 4 -28 -8
-14 -8 9 -25 23 -39 33 -16 11 -19 16 -9 16 22 0 44 50 27 61 -11 7 -11 9 0 9
8 0 10 5 6 12 -5 8 -2 9 9 5 12 -4 21 2 32 23 8 16 15 36 15 45 0 22 12 19 66
-18z m-449 -43 c-3 -3 -12 -4 -19 -1 -8 3 -5 6 6 6 11 1 17 -2 13 -5z m-1363
-25 c-5 -9 21 -30 29 -24 4 3 5 3 3 -1 -2 -3 5 -28 15 -55 12 -30 15 -48 8
-43 -9 5 -10 1 -7 -14 8 -29 -5 -37 -78 -49 -40 -6 -77 17 -98 62 -23 47 -20
82 9 111 21 21 33 25 74 22 27 -2 47 -6 45 -9z m1985 -33 c15 -8 33 -21 40
-29 16 -20 33 -79 20 -72 -5 4 -9 -1 -9 -10 0 -9 -9 -19 -21 -22 -16 -5 -19
-11 -14 -30 3 -14 2 -22 -4 -19 -5 3 -11 0 -14 -8 -3 -7 -19 -18 -37 -24 -17
-6 -28 -7 -25 -3 3 5 -2 12 -11 15 -10 4 -13 2 -9 -7 4 -6 -1 -3 -10 8 -9 11
-21 19 -26 17 -6 -1 -8 2 -4 8 3 5 1 11 -4 11 -6 1 -16 2 -23 3 -16 2 -19 34
-3 40 7 2 23 19 36 37 12 18 18 30 13 26 -6 -3 -11 1 -11 9 0 8 6 13 13 10 13
-5 44 24 44 42 0 16 25 15 59 -2z m-2289 -66 c-6 -12 -23 -26 -38 -31 -21 -8
-23 -12 -12 -19 13 -8 12 -10 -2 -10 -28 0 -22 39 7 50 14 5 25 14 25 20 0 5
7 10 15 10 13 0 14 -4 5 -20z m70 -75 c0 6 5 3 10 -5 8 -13 10 -13 10 1 0 9 7
16 16 16 11 0 14 -7 10 -26 l-6 -26 15 25 15 25 -4 -25 c-3 -18 1 -26 13 -28
38 -4 105 -20 94 -22 -7 -1 -16 -3 -20 -4 -36 -7 -36 -46 0 -46 13 0 18 -3 11
-10 -5 -5 -24 -6 -46 -1 -20 5 -48 6 -63 3 -16 -3 -30 0 -35 8 -4 7 -15 10
-24 7 -14 -5 -15 -11 -6 -27 6 -11 14 -19 18 -17 4 3 16 1 27 -4 15 -5 16 -8
4 -8 -9 -1 -24 -11 -35 -23 -19 -22 -19 -23 1 -8 18 14 19 14 7 -2 -13 -17
-47 -14 -36 3 11 18 -16 87 -36 92 -20 5 -23 26 -7 38 10 8 -13 59 -27 59 -6
1 0 10 13 21 19 15 26 17 32 7 6 -9 9 -7 9 7 0 17 3 15 20 -10 11 -16 20 -25
20 -20z m1756 -32 c-11 -11 -106 -31 -100 -21 3 4 -7 9 -23 10 -15 1 -1 4 32
8 93 10 99 10 91 3z m698 -17 c10 -42 1 -60 -30 -60 -25 0 -30 4 -32 29 -6 46
51 74 62 31z m-2237 -12 c-3 -3 -12 -4 -19 -1 -8 3 -5 6 6 6 11 1 17 -2 13 -5z
m1406 -39 c-3 -9 -8 -14 -10 -11 -3 3 -2 9 2 15 9 16 15 13 8 -4z m-1221 -29
c104 -1 120 -4 140 -23 13 -11 33 -24 44 -27 12 -4 30 -16 40 -28 l19 -22 -29
22 c-16 12 -33 22 -38 22 -5 0 -24 11 -42 25 -30 23 -76 30 -76 12 0 -15 -257
9 -267 26 -4 6 11 7 43 2 27 -4 102 -8 166 -9z m-544 -17 c-2 -6 3 -14 11 -17
9 -3 11 0 6 9 -5 8 -6 12 -2 9 3 -3 6 -9 7 -15 3 -18 22 -35 33 -28 5 3 7 1 4
-5 -8 -12 2 -44 12 -38 3 2 6 -6 6 -19 0 -13 -4 -21 -9 -18 -5 3 -7 0 -4 -8 9
-26 -43 -59 -91 -59 -43 0 -100 53 -107 100 -7 51 21 82 82 91 27 3 50 7 52 8
1 0 1 -4 0 -10z m2756 -98 c10 -9 27 -33 37 -53 l19 -38 -22 -1 c-22 0 -22 -1
-3 -9 18 -8 17 -9 -7 -9 -27 -1 -37 12 -19 23 13 8 10 56 -3 53 -6 -1 -10 3
-9 10 5 23 -37 24 -77 2 -21 -12 -37 -26 -35 -30 3 -4 -2 -9 -10 -13 -19 -7
-20 -56 -1 -81 13 -18 14 -18 44 4 32 23 37 46 15 73 -7 8 -8 19 -4 27 10 16
32 6 25 -12 -2 -7 7 -28 21 -47 l25 -34 -30 -14 c-17 -8 -27 -19 -23 -26 3 -6
3 -8 -2 -4 -12 11 -35 -11 -29 -27 3 -7 1 -16 -5 -19 -11 -7 -25 12 -26 34 0
8 -6 14 -12 13 -7 -2 -12 0 -12 5 3 19 -2 32 -12 30 -7 -2 -13 16 -16 43 -3
36 1 51 18 73 42 53 109 65 153 27z m-1926 -36 c-3 -3 -9 2 -12 12 -6 14 -5
15 5 6 7 -7 10 -15 7 -18z m-1024 -8 c-6 -17 99 -89 124 -85 17 3 19 -13 6
-70 -3 -17 -1 -21 7 -16 8 4 9 3 5 -5 -4 -6 -11 -9 -16 -6 -4 3 -13 -2 -20
-10 -17 -20 -66 -19 -74 1 -10 26 -7 32 18 30 13 0 22 -5 19 -9 -3 -5 5 -7 18
-5 44 6 33 34 -30 77 -33 23 -70 45 -81 49 l-21 8 21 27 c23 29 32 35 24 14z
m153 -144 c-3 -10 -5 -4 -5 12 0 17 2 24 5 18 2 -7 2 -21 0 -30z m2978 -124
c-4 -5 -11 -9 -16 -9 -6 0 -7 5 -4 10 3 6 -1 10 -10 10 -11 0 -15 6 -10 19 3
11 -1 25 -9 34 -8 8 -12 17 -9 21 4 3 -1 6 -11 6 -10 0 -14 -5 -10 -12 4 -7 3
-8 -4 -4 -7 4 -19 3 -29 -2 -15 -9 -14 -12 8 -34 17 -17 21 -28 14 -34 -21
-18 -33 -13 -39 16 -3 17 -10 30 -16 30 -6 0 -8 -5 -4 -12 4 -6 3 -8 -4 -5
-14 9 -43 -3 -36 -14 3 -5 -2 -6 -10 -3 -9 3 -16 1 -16 -5 0 -14 45 -61 58
-61 5 0 9 -7 9 -15 0 -8 -4 -15 -8 -15 -5 0 -6 -6 -3 -14 3 -8 0 -17 -6 -21
-6 -4 -9 -1 -8 7 2 7 -3 12 -10 10 -8 -1 -11 2 -8 7 9 14 -5 42 -17 34 -5 -3
-7 -1 -4 5 10 15 -3 43 -16 35 -5 -3 -7 -1 -4 5 8 12 -2 44 -12 38 -4 -3 -7 4
-8 14 -1 12 3 17 12 14 7 -3 30 4 52 15 21 11 32 20 26 21 -7 0 -13 4 -13 10
0 5 13 7 28 4 22 -4 34 0 52 19 l24 25 38 -70 c21 -38 36 -74 33 -79z m-650
103 c-3 -3 -11 0 -18 7 -9 10 -8 11 6 5 10 -3 15 -9 12 -12z m58 3 c-3 -9 -8
-14 -10 -11 -3 3 -2 9 2 15 9 16 15 13 8 -4z m-218 -15 c-3 -5 -14 -10 -23
-10 -15 0 -15 2 -2 10 20 13 33 13 25 0z m-325 -20 c-6 -11 -13 -20 -16 -20
-2 0 0 9 6 20 6 11 13 20 16 20 2 0 0 -9 -6 -20z m-56 -29 c3 -5 -10 -9 -29
-8 -21 1 -30 4 -22 9 16 10 45 10 51 -1z m97 -18 c11 -15 11 -16 0 -6 -7 6
-20 9 -29 6 -10 -4 -13 -2 -8 5 10 17 21 15 37 -5z m-2135 -25 c4 -13 1 -24
-7 -29 -8 -5 -9 -9 -4 -9 6 0 2 -5 -8 -11 -40 -23 -79 25 -46 58 18 18 58 12
65 -9z m1901 -3 c0 -8 -4 -15 -9 -15 -10 0 -11 14 -1 23 9 10 10 9 10 -8z
m324 -5 c-25 -21 -46 -27 -36 -10 3 6 13 10 21 10 8 0 14 5 14 10 0 6 6 10 13
10 6 -1 1 -10 -12 -20z m-441 -11 c0 -6 -4 -7 -10 -4 -5 3 -10 11 -10 16 0 6
5 7 10 4 6 -3 10 -11 10 -16z m25 1 c3 -5 1 -10 -4 -10 -6 0 -11 5 -11 10 0 6
2 10 4 10 3 0 8 -4 11 -10z m45 -21 c-6 -10 -13 -19 -16 -19 -2 0 0 8 5 19 6
10 7 22 3 26 -4 5 -1 5 6 1 9 -5 9 -12 2 -27z m-200 -9 c-8 -5 -19 -10 -25
-10 -5 0 -3 5 5 10 8 5 20 10 25 10 6 0 3 -5 -5 -10z m565 0 c-3 -5 -11 -10
-16 -10 -6 0 -7 5 -4 10 3 6 11 10 16 10 6 0 7 -4 4 -10z m-452 -37 c-3 -7 -9
-10 -14 -7 -14 8 -11 21 5 21 8 0 12 -6 9 -14z m286 -3 c-9 -6 -6 -16 14 -40
31 -37 36 -59 7 -30 -11 11 -20 25 -20 30 0 6 -7 10 -15 10 -18 0 -19 5 -3 29
7 11 16 17 21 14 5 -3 3 -9 -4 -13z m53 -22 c-9 -9 -12 -7 -12 12 0 19 3 21
12 12 9 -9 9 -15 0 -24z m1157 22 c26 -14 45 -64 35 -97 -4 -16 -8 -32 -8 -38
-1 -5 -21 -20 -46 -33 -53 -27 -101 -24 -136 9 -40 37 -21 118 35 152 29 18
93 22 120 7z m-1576 -25 c-3 -9 -8 -14 -10 -11 -3 3 -2 9 2 15 9 16 15 13 8
-4z m-43 1 c0 -3 -4 -8 -10 -11 -5 -3 -10 -1 -10 4 0 6 5 11 10 11 6 0 10 -2
10 -4z m377 -41 c-7 -21 -35 -16 -39 8 -4 21 -3 23 19 13 12 -6 21 -15 20 -21z
m703 15 c0 -5 -4 -10 -10 -10 -5 0 -10 5 -10 10 0 6 5 10 10 10 6 0 10 -4 10
-10z m-1660 -30 c13 -8 13 -10 -2 -10 -9 0 -20 5 -23 10 -8 13 5 13 25 0z
m144 -2 c-3 -4 -9 -8 -15 -8 -5 0 -9 4 -9 8 0 5 7 9 15 9 8 0 12 -4 9 -9z
m503 -20 c-3 -8 -6 -5 -6 6 -1 11 2 17 5 13 3 -3 4 -12 1 -19z m-1743 6 c9 -3
14 -9 12 -13 -2 -3 11 -17 28 -30 l31 -25 -25 28 c-23 27 -24 28 -3 17 12 -6
27 -27 34 -46 14 -37 24 -44 32 -22 3 6 6 1 6 -12 1 -17 -3 -22 -14 -17 -9 3
-15 0 -15 -9 0 -8 -7 -15 -15 -15 -8 0 -15 -4 -15 -10 0 -17 -62 -42 -89 -37
-15 3 -33 2 -41 -4 -10 -6 -11 -9 -2 -9 22 0 12 -20 -10 -20 -25 -1 -68 -32
-68 -50 0 -6 -4 -8 -10 -5 -5 3 -10 -3 -10 -14 0 -29 43 -54 98 -56 47 -3 47
-3 7 4 l-40 7 52 4 c32 3 49 1 46 -5 -2 -5 3 -1 11 9 23 28 20 41 -16 70 -28
21 -30 26 -15 32 33 12 61 -18 62 -67 0 -37 -4 -48 -27 -67 -60 -50 -153 -33
-185 32 -16 34 -16 38 0 72 17 35 15 60 -4 48 -5 -3 -8 0 -7 8 2 8 -7 13 -24
13 -20 -1 -28 4 -28 17 0 23 2 22 50 -2 39 -20 90 -26 104 -13 3 4 -6 17 -21
29 -36 29 -39 97 -6 124 12 10 20 20 17 23 -3 3 5 3 18 0 18 -4 20 -3 8 6 -12
8 -7 11 22 11 20 0 43 -3 52 -6z m1306 -4 c0 -5 -2 -10 -4 -10 -3 0 -8 5 -11
10 -3 6 -1 10 4 10 6 0 11 -4 11 -10z m309 -32 c8 3 11 0 7 -7 -4 -6 -2 -11 4
-11 7 0 5 -6 -4 -15 -17 -17 -30 -20 -21 -5 4 6 -5 28 -20 48 -23 31 -23 33
-3 11 13 -14 30 -23 37 -21z m1461 32 c0 -5 -4 -10 -10 -10 -5 0 -10 5 -10 10
0 6 5 10 10 10 6 0 10 -4 10 -10z m-2349 -17 c13 -16 12 -17 -3 -4 -17 13 -22
21 -14 21 2 0 10 -8 17 -17z m732 -20 c-6 -15 -19 -17 -27 -4 -7 11 0 18 18
18 8 0 12 -6 9 -14z m257 -13 c-7 -5 -20 -5 -29 -2 -13 5 -11 8 7 10 12 2 22
9 23 15 0 7 3 7 6 -2 3 -7 0 -17 -7 -21z m-655 -8 c-8 -2 -18 -14 -21 -28 -6
-24 -44 -36 -44 -13 0 5 4 8 9 4 13 -8 41 34 34 52 -5 13 -3 13 16 1 17 -10
18 -14 6 -16z m603 3 c-3 -3 -9 2 -12 12 -6 14 -5 15 5 6 7 -7 10 -15 7 -18z
m-741 -7 c-3 -8 -6 -5 -6 6 -1 11 2 17 5 13 3 -3 4 -12 1 -19z m-32 2 c3 -5 2
-10 -4 -10 -5 0 -13 5 -16 10 -3 6 -2 10 4 10 5 0 13 -4 16 -10z m65 6 c0 -3
-4 -8 -10 -11 -5 -3 -10 -1 -10 4 0 6 5 11 10 11 6 0 10 -2 10 -4z m1787 -28
c-3 -8 -6 -5 -6 6 -1 11 2 17 5 13 3 -3 4 -12 1 -19z m-2543 1 c-3 -6 -14 -9
-24 -6 -9 2 -26 0 -36 -5 -18 -9 -18 -8 0 6 23 18 71 22 60 5z m52 -4 c16 -8
27 -15 24 -16 -31 -5 -48 -4 -43 4 3 5 -1 13 -8 18 -23 14 -3 10 27 -6z m3132
-27 c35 -141 35 -148 -13 -147 l-20 0 20 9 c11 5 14 9 8 9 -9 1 -10 8 -3 27
13 34 13 34 -12 33 -22 0 -22 -1 -3 -10 15 -7 8 -8 -25 -4 -34 4 -41 3 -30 -5
11 -9 6 -10 -20 -5 -27 5 -32 4 -20 -5 12 -9 8 -10 -17 -5 -18 4 -34 2 -38 -4
-4 -7 1 -8 12 -4 12 4 10 -1 -7 -14 -14 -12 -27 -20 -29 -17 -2 2 -5 22 -7 45
-2 34 0 40 13 34 9 -3 50 2 90 11 64 14 74 19 70 35 -3 12 -1 17 5 12 7 -3 8
-1 4 5 -4 7 -15 12 -24 12 -13 0 -13 2 4 15 28 21 30 19 42 -27z m-2778 25 c0
-9 -65 -11 -73 -3 -3 3 12 6 34 8 21 1 39 -1 39 -5z m60 -13 c8 5 22 10 30 10
8 0 -3 -9 -25 -20 -47 -24 -49 -24 -42 -6 3 7 0 20 -6 27 -7 7 -3 6 8 -3 14
-12 25 -14 35 -8z m240 -1 c0 -5 -4 -9 -10 -9 -5 0 -10 7 -10 16 0 8 5 12 10
9 6 -3 10 -10 10 -16z m77 7 c0 -8 -6 -12 -14 -9 -7 3 -10 9 -7 14 8 14 21 11
21 -5z m1930 -38 c-2 -13 -4 -5 -4 17 -1 22 1 32 4 23 2 -10 2 -28 0 -40z
m-1167 21 c7 -11 8 -24 4 -27 -4 -4 -9 -1 -11 6 -3 6 -9 10 -14 6 -5 -3 -9 4
-9 15 0 27 16 27 30 0z m-1409 1 c11 0 17 -4 14 -10 -6 -9 -51 -11 -68 -3 -14
8 5 25 20 19 8 -3 24 -6 34 -6z m125 -25 c-19 -28 -33 -31 -61 -9 -18 13 -17
14 12 8 25 -5 33 -2 43 16 6 12 14 19 17 16 3 -3 -2 -17 -11 -31z m2132 13
c-2 -6 -10 -14 -16 -16 -7 -2 -10 2 -6 12 7 18 28 22 22 4z m27 3 c3 -5 1 -12
-5 -16 -5 -3 -10 1 -10 9 0 18 6 21 15 7z m125 -21 c-26 -7 -40 -4 -40 9 0 4
15 5 33 2 31 -4 31 -5 7 -11z m-2375 1 c3 -5 1 -12 -5 -16 -5 -3 -10 1 -10 9
0 18 6 21 15 7z m360 -1 c-3 -5 -11 -10 -16 -10 -6 0 -7 5 -4 10 3 6 11 10 16
10 6 0 7 -4 4 -10z m25 -15 c0 -8 -4 -15 -10 -15 -5 0 -7 7 -4 15 4 8 8 15 10
15 2 0 4 -7 4 -15z m-340 -35 c0 -3 -9 -6 -20 -7 -23 -2 -26 7 -8 25 9 9 14 9
20 -1 4 -6 8 -14 8 -17z m2150 -2 c0 -13 -23 -5 -28 10 -2 7 2 10 12 6 9 -3
16 -11 16 -16z m221 4 c-7 -2 -18 1 -23 6 -8 8 -4 9 13 5 13 -4 18 -8 10 -11z
m166 3 c-4 -11 -43 -8 -66 5 -8 4 3 7 28 6 23 0 40 -5 38 -11z m-1690 -37 c-3
-7 -5 -2 -5 12 0 14 2 19 5 13 2 -7 2 -19 0 -25z m1461 -13 c-3 -3 -9 2 -12
12 -6 14 -5 15 5 6 7 -7 10 -15 7 -18z m222 -5 c0 -16 -4 -30 -8 -30 -5 0 -7
14 -4 30 2 17 6 30 8 30 2 0 4 -13 4 -30z m-1355 0 c-3 -5 -12 -10 -18 -10 -7
0 -6 4 3 10 19 12 23 12 15 0z m1495 -16 c0 -8 -9 -14 -20 -14 -13 0 -25 -12
-35 -32 l-14 -33 6 30 c3 17 9 37 14 45 10 20 49 23 49 4z m-530 -18 c0 -3 -4
-8 -10 -11 -5 -3 -10 -1 -10 4 0 6 5 11 10 11 6 0 10 -2 10 -4z m-2513 -28
c-3 -8 -6 -5 -6 6 -1 11 2 17 5 13 3 -3 4 -12 1 -19z m-193 -4 c3 -8 2 -12 -4
-9 -6 3 -10 10 -10 16 0 14 7 11 14 -7z m3256 9 c0 -5 -5 -15 -10 -23 -8 -12
-10 -11 -10 8 0 12 5 22 10 22 6 0 10 -3 10 -7z m-580 -25 c11 -12 20 -27 20
-32 0 -8 -3 -7 -8 0 -4 6 -17 16 -29 23 -13 6 -23 16 -23 21 0 17 18 11 40
-12z m-580 -39 c0 -5 4 -8 9 -5 5 4 7 -3 4 -14 -3 -11 -10 -20 -15 -20 -5 0
-6 5 -3 10 4 6 1 17 -5 25 -9 11 -9 15 -1 15 6 0 11 -5 11 -11z m1165 -7 c-3
-3 -11 0 -18 7 -9 10 -8 11 6 5 10 -3 15 -9 12 -12z m-1685 -8 c0 -2 -7 -4
-15 -4 -8 0 -15 4 -15 10 0 5 7 7 15 4 8 -4 15 -8 15 -10z m655 5 c4 -6 0 -9
-11 -7 -13 2 -19 -3 -17 -16 1 -11 -2 -15 -8 -9 -5 5 -7 17 -3 26 7 19 29 23
39 6z m595 1 c8 -5 11 -10 5 -10 -5 0 -17 5 -25 10 -8 5 -10 10 -5 10 6 0 17
-5 25 -10z m-133 -52 c-3 -7 -5 -2 -5 12 0 14 2 19 5 13 2 -7 2 -19 0 -25z
m-617 1 c0 -6 -4 -7 -10 -4 -5 3 -10 11 -10 16 0 6 5 7 10 4 6 -3 10 -11 10
-16z m-2075 -10 c-28 -6 -27 -7 10 -7 22 0 64 3 93 7 l52 7 0 -39 c0 -30 -3
-37 -12 -29 -19 15 -178 27 -178 13 0 -6 -4 -11 -10 -11 -10 0 -14 62 -5 71 2
3 21 3 42 0 l38 -5 -30 -7z m172 -11 c-3 -7 -5 -2 -5 12 0 14 2 19 5 13 2 -7
2 -19 0 -25z m2823 12 c8 -5 11 -10 5 -10 -5 0 -17 5 -25 10 -8 5 -10 10 -5
10 6 0 17 -5 25 -10z m-927 -111 c-4 -4 -6 18 -3 49 l5 57 3 -49 c2 -27 0 -52
-5 -57z m625 76 c-3 -3 -9 2 -12 12 -6 14 -5 15 5 6 7 -7 10 -15 7 -18z
m-2803 5 c3 -5 2 -10 -4 -10 -5 0 -13 5 -16 10 -3 6 -2 10 4 10 5 0 13 -4 16
-10z m2705 -84 c-1 -6 -7 3 -14 19 l-13 30 -8 -27 c-7 -29 3 -74 12 -50 3 6 9
12 15 12 6 0 6 -6 -2 -15 -6 -8 -9 -19 -5 -25 3 -5 -1 -10 -10 -10 -9 0 -14 4
-11 9 3 5 -2 23 -10 41 -11 20 -13 35 -7 39 6 3 14 17 18 30 7 24 8 24 21 -8
8 -19 14 -38 14 -45z m-880 40 c0 -3 -4 -8 -10 -11 -5 -3 -10 -1 -10 4 0 6 5
11 10 11 6 0 10 -2 10 -4z m-1557 -33 c-4 -10 -2 -14 4 -10 15 10 24 -20 10
-31 -7 -4 -31 -14 -54 -21 -53 -15 -59 -41 -10 -41 18 0 39 6 46 13 11 10 13
9 7 -6 -3 -10 -6 -33 -6 -50 0 -24 -3 -28 -12 -19 -18 18 -55 15 -67 -5 -9
-15 -12 -15 -19 -5 -6 9 -24 13 -51 11 -50 -4 -61 8 -61 69 0 52 24 92 55 92
25 0 49 -22 37 -34 -4 -4 -2 -7 3 -6 21 5 29 -1 15 -10 -11 -7 -11 -10 -2 -10
7 0 32 20 54 45 39 43 64 52 51 18z m2269 -23 c-6 -43 -12 -37 -12 13 0 25 4
37 8 29 5 -7 7 -26 4 -42z m1007 22 c17 1 31 5 31 9 0 4 14 1 30 -8 17 -8 42
-12 54 -9 29 7 36 -7 36 -68 0 -32 -6 -50 -25 -70 -13 -14 -28 -26 -32 -26
-19 0 -54 33 -49 46 3 7 0 16 -6 20 -7 5 -8 2 -3 -6 6 -9 2 -10 -15 -5 -15 5
-20 4 -16 -4 4 -6 1 -9 -7 -5 -9 3 -23 -7 -37 -25 -23 -33 -45 -32 -34 1 4 15
3 18 -6 13 -9 -6 -9 -3 -1 13 7 13 25 22 56 26 25 4 45 12 45 17 0 6 5 7 10 4
6 -3 10 -1 10 4 0 6 -5 11 -11 11 -5 0 -8 3 -5 8 7 12 -78 1 -86 -12 -4 -6 -8
7 -8 30 0 46 7 59 25 44 7 -6 27 -9 44 -8z m-1381 -34 c7 -7 12 -15 12 -20 0
-12 -28 2 -34 18 -7 17 6 18 22 2z m-1401 -40 c-3 -8 -6 -5 -6 6 -1 11 2 17 5
13 3 -3 4 -12 1 -19z m1420 -135 c-2 -27 -3 -5 -3 47 0 52 1 74 3 48 2 -27 2
-69 0 -95z m463 127 c0 -5 -2 -10 -4 -10 -3 0 -8 5 -11 10 -3 6 -1 10 4 10 6
0 11 -4 11 -10z m-1906 -9 c8 -12 -21 -34 -34 -26 -8 5 -8 11 1 21 13 16 25
18 33 5z m63 -36 c2 -19 -2 -35 -7 -35 -6 0 -9 3 -9 8 4 24 -3 34 -18 28 -13
-4 -11 0 6 14 13 11 24 20 25 20 0 0 2 -16 3 -35z m71 20 c12 -3 22 -11 22
-16 0 -6 -9 -5 -21 2 -12 6 -30 9 -40 6 -12 -3 -19 0 -19 10 0 9 7 13 18 9 9
-2 27 -7 40 -11z m-31 -31 c-3 -3 -12 -4 -19 -1 -8 3 -5 6 6 6 11 1 17 -2 13
-5z m0 -29 c0 -11 -4 -12 -14 -4 -7 6 -13 13 -13 15 0 2 6 4 13 4 8 0 14 -7
14 -15z m2697 -54 c17 1 38 -1 46 -4 36 -13 78 -15 89 -4 8 8 11 7 11 -5 0
-29 -21 -73 -28 -61 -4 6 -44 17 -90 23 -65 10 -85 10 -97 0 -13 -11 -15 -7
-15 21 0 26 3 31 11 19 8 -12 10 -12 8 5 -2 34 0 37 17 20 10 -9 30 -15 48
-14z m-3284 4 c17 -9 30 -18 30 -21 0 -3 -4 -2 -10 1 -6 3 -7 -1 -4 -9 3 -9
10 -13 15 -10 5 3 6 -3 2 -12 -4 -12 -3 -15 5 -10 19 12 14 -25 -8 -62 -21
-33 -71 -62 -110 -62 -60 0 -110 63 -90 114 5 13 6 27 2 32 -4 4 -2 4 4 1 7
-4 18 1 25 10 12 14 12 16 -1 9 -9 -4 -8 -2 2 7 12 9 36 13 70 11 50 -2 51 -2
13 5 -40 8 -40 8 -7 10 18 0 46 -6 62 -14z m570 -5 c0 -5 -4 -10 -10 -10 -5 0
-10 5 -10 10 0 6 5 10 10 10 6 0 10 -4 10 -10z m-760 -97 c0 -20 -38 -15 -50
6 -7 14 -6 21 3 24 16 5 47 -14 47 -30z m3410 16 c5 8 14 6 31 -8 l24 -20 -33
-11 c-48 -18 -59 -90 -13 -90 23 0 64 48 57 66 -7 17 13 30 50 33 59 5 80 -48
49 -123 -17 -40 -26 -44 -46 -20 -17 21 -20 44 -5 38 16 -6 33 14 38 45 2 15
-3 26 -12 28 -13 4 -13 3 0 -6 12 -9 11 -11 -7 -11 -16 0 -31 -13 -48 -40 -14
-22 -29 -41 -33 -41 -51 -8 -64 -6 -82 13 -22 24 -29 85 -8 72 7 -5 9 -2 5 9
-3 8 -1 30 6 47 6 17 13 26 16 19 2 -8 5 -8 11 0z m-1043 -51 c-3 -8 -6 -5 -6
6 -1 11 2 17 5 13 3 -3 4 -12 1 -19z m-1537 -13 c11 -13 10 -14 -4 -9 -8 3
-33 -4 -53 -15 l-38 -22 35 30 c41 35 43 36 60 16z m437 -41 c-19 -16 -41 -24
-70 -25 -23 -1 -58 -3 -77 -4 -27 -3 -30 -2 -15 5 11 5 45 9 76 9 47 1 61 5
80 25 13 14 26 22 29 19 3 -2 -8 -16 -23 -29z m850 4 c-3 -7 -5 -2 -5 12 0 14
2 19 5 13 2 -7 2 -19 0 -25z m854 0 c9 -16 8 -19 -3 -12 -7 5 -17 9 -23 9 -5
0 -11 8 -13 17 -5 24 25 13 39 -14z m-2086 4 c-3 -3 -11 0 -18 7 -9 10 -8 11
6 5 10 -3 15 -9 12 -12z m65 -22 c8 -5 11 -10 5 -10 -5 0 -17 5 -25 10 -8 5
-10 10 -5 10 6 0 17 -5 25 -10z m995 -10 c8 -13 -14 -42 -26 -34 -5 3 -9 14
-9 25 0 20 24 26 35 9z m-939 -16 c18 -14 18 -14 -6 -3 -31 14 -36 19 -24 19
6 0 19 -7 30 -16z m71 10 c-3 -3 -12 -4 -19 -1 -8 3 -5 6 6 6 11 1 17 -2 13
-5z m603 2 c0 -3 -4 -8 -10 -11 -5 -3 -10 -1 -10 4 0 6 5 11 10 11 6 0 10 -2
10 -4z m687 -18 c-3 -8 -6 -5 -6 6 -1 11 2 17 5 13 3 -3 4 -12 1 -19z m494 5
c13 -16 12 -17 -3 -4 -17 13 -22 21 -14 21 2 0 10 -8 17 -17z m-2584 -24 c-3
-11 -1 -16 5 -13 6 4 8 -2 6 -12 -2 -11 -12 -19 -24 -20 -38 -2 -152 -45 -158
-59 -3 -8 4 -21 15 -28 17 -13 18 -16 4 -27 -9 -7 -18 -11 -20 -8 -11 10 -63
177 -57 182 3 3 17 6 31 6 14 0 22 -4 16 -8 -5 -4 -11 -22 -11 -39 -2 -25 2
-33 15 -33 12 0 13 2 3 9 -18 11 29 24 54 14 12 -5 15 -3 9 6 -6 10 -2 11 15
6 17 -5 21 -4 15 6 -6 9 -2 11 13 7 14 -4 20 -2 15 5 -4 6 0 8 9 4 11 -4 18 1
21 15 4 12 10 17 17 13 7 -4 10 -16 7 -26z m890 -16 c-3 -10 -5 -2 -5 17 0 19
2 27 5 18 2 -10 2 -26 0 -35z m540 31 c-3 -3 -12 -4 -19 -1 -8 3 -5 6 6 6 11
1 17 -2 13 -5z m-202 -14 c-3 -5 -13 -10 -21 -10 -8 0 -12 5 -9 10 3 6 13 10
21 10 8 0 12 -4 9 -10z m1385 -43 c0 -4 -16 4 -35 19 -45 34 -45 41 0 12 19
-13 35 -27 35 -31z m247 1 c-3 -7 -5 -2 -5 12 0 14 2 19 5 13 2 -7 2 -19 0
-25z m-2562 13 c-6 -5 -50 -14 -100 -20 -49 -6 -103 -13 -120 -16 l-30 -5 30
10 c17 6 73 17 125 24 52 8 97 14 100 15 2 0 0 -3 -5 -8z m925 -6 c7 -9 8 -15
2 -15 -5 0 -12 7 -16 15 -3 8 -4 15 -2 15 2 0 9 -7 16 -15z m360 3 c0 -5 -9
-8 -19 -8 -11 0 -22 3 -24 8 -3 4 6 7 19 7 13 0 24 -3 24 -7z m-540 -22 c0 -3
-4 -8 -10 -11 -5 -3 -10 -1 -10 4 0 6 5 11 10 11 6 0 10 -2 10 -4z m525 -6 c3
-5 1 -10 -4 -10 -6 0 -11 5 -11 10 0 6 2 10 4 10 3 0 8 -4 11 -10z m-1378 -32
c-3 -7 -5 -2 -5 12 0 14 2 19 5 13 2 -7 2 -19 0 -25z m1633 22 c0 -5 -2 -10
-4 -10 -3 0 -8 5 -11 10 -3 6 -1 10 4 10 6 0 11 -4 11 -10z m-1670 -25 c0 -14
-4 -25 -8 -25 -4 0 -9 11 -10 25 -1 14 3 25 8 25 6 0 10 -11 10 -25z m1150 5
c8 -5 11 -10 5 -10 -5 0 -17 5 -25 10 -8 5 -10 10 -5 10 6 0 17 -5 25 -10z
m120 -55 c0 -8 -38 8 -60 26 -23 18 -22 18 18 -2 23 -11 42 -22 42 -24z m35
25 c-10 -11 -21 -17 -24 -14 -3 3 3 12 13 20 28 20 32 17 11 -6z m-1594 -8
c-7 -2 -18 1 -23 6 -8 8 -4 9 13 5 13 -4 18 -8 10 -11z m155 -4 c8 -7 24 -22
36 -33 12 -11 17 -13 13 -5 -6 12 -5 12 5 4 6 -7 12 -28 12 -48 0 -20 4 -36
10 -36 5 0 6 -4 3 -10 -3 -5 -20 -10 -37 -10 -27 0 -29 2 -17 17 8 9 9 14 2
10 -8 -5 -9 0 0 22 12 34 -2 61 -33 61 -13 0 -19 -10 -22 -39 -2 -22 0 -37 4
-35 5 3 8 -7 8 -22 0 -30 -41 -74 -69 -74 -23 0 -55 37 -70 79 -14 43 -15 41
13 41 19 0 22 -4 18 -25 -2 -14 2 -33 9 -42 12 -14 12 -16 -1 -8 -12 6 -12 5
-4 -4 7 -7 20 -11 30 -9 16 3 19 12 16 60 -3 61 9 98 33 98 8 0 15 5 15 10 0
13 8 13 26 -2z m2421 -60 c-3 -8 -6 -5 -6 6 -1 11 2 17 5 13 3 -3 4 -12 1 -19z
m243 -23 c7 -8 8 -15 2 -15 -5 0 -15 7 -22 15 -7 8 -8 15 -2 15 5 0 15 -7 22
-15z m-103 -47 c-3 -8 -6 -5 -6 6 -1 11 2 17 5 13 3 -3 4 -12 1 -19z m-2461
-17 c-4 -5 -1 -11 5 -13 19 -6 21 -58 3 -58 -21 0 -137 -69 -148 -87 -7 -12
-12 -10 -27 13 -21 33 -17 44 13 36 16 -4 19 -2 13 8 -5 8 -4 11 3 6 6 -3 37
10 69 29 32 19 54 35 50 35 -4 0 -3 9 3 20 6 11 13 20 16 20 3 0 3 -4 0 -9z
m883 -53 c-5 -84 -39 -112 -39 -33 0 25 4 45 9 45 5 0 13 9 16 20 11 35 17 22
14 -32z m1578 5 c-3 -10 -5 -2 -5 17 0 19 2 27 5 18 2 -10 2 -26 0 -35z m-123
-35 c6 -5 2 -8 -11 -8 -17 0 -23 6 -23 23 0 33 14 44 19 15 1 -12 8 -26 15
-30z m-2408 27 c-11 -8 -29 -15 -40 -14 -15 0 -10 4 14 13 46 18 48 18 26 1z
m1036 -10 c-2 -11 -8 -24 -13 -29 -14 -16 -32 9 -24 34 9 27 41 23 37 -5z
m1835 3 c-3 -8 -6 -5 -6 6 -1 11 2 17 5 13 3 -3 4 -12 1 -19z m-617 -9 c0 -6
-4 -7 -10 -4 -5 3 -10 11 -10 16 0 6 5 7 10 4 6 -3 10 -11 10 -16z m197 -26
c-3 -10 -5 -4 -5 12 0 17 2 24 5 18 2 -7 2 -21 0 -30z m-2316 0 c12 -14 12
-16 -1 -9 -8 4 -4 -1 9 -12 l23 -19 -38 -20 c-23 -12 -38 -27 -38 -37 1 -9 -3
-13 -10 -10 -6 3 -1 -3 11 -14 12 -11 19 -23 15 -27 -4 -4 0 -6 8 -3 8 3 15
10 15 16 0 5 4 14 9 19 5 5 6 3 2 -4 -9 -16 6 -17 21 -2 6 6 9 18 6 25 -7 19
9 18 33 -2 10 -8 12 -12 4 -8 -12 6 -13 4 -2 -7 16 -17 15 -29 -2 -29 -8 0
-28 -12 -43 -26 -15 -14 -22 -23 -15 -19 6 3 12 1 12 -4 0 -6 -10 -10 -23 -9
-27 2 -76 -31 -77 -51 0 -16 -40 32 -40 49 0 7 8 9 19 5 11 -3 23 0 27 6 5 8
3 9 -6 4 -9 -5 -11 -4 -6 4 4 6 12 9 17 6 5 -4 14 -3 19 0 11 6 -18 65 -31 65
-4 0 -21 -13 -38 -29 l-31 -29 -15 21 c-14 20 -13 22 5 29 11 4 20 10 20 13 0
4 -6 3 -12 -1 -8 -4 -9 -3 -5 2 5 5 16 9 25 9 9 0 17 5 17 12 0 6 4 15 9 20 5
5 6 3 2 -4 -4 -7 -3 -13 2 -13 15 0 33 26 24 35 -4 5 -1 5 6 1 19 -11 54 23
46 46 -7 23 9 24 27 1z m2299 -33 c0 -5 -5 -10 -11 -10 -5 0 -7 5 -4 10 3 6 8
10 11 10 2 0 4 -4 4 -10z m-425 -66 l3 -29 -15 34 c-7 18 -23 35 -33 38 -11 3
-17 9 -14 14 11 18 57 -27 59 -57z m486 40 c20 -22 21 -25 4 -16 -11 6 -29 17
-40 26 -16 12 -17 15 -4 16 8 0 26 -12 40 -26z m186 -71 c-2 -16 -4 -5 -4 22
0 28 2 40 4 28 2 -13 2 -35 0 -50z m-632 47 c-3 -5 -11 -10 -16 -10 -6 0 -7 5
-4 10 3 6 11 10 16 10 6 0 7 -4 4 -10z m331 -6 c-8 -21 20 -54 45 -54 13 0 16
-5 12 -17 -5 -12 -2 -15 9 -11 8 4 15 1 15 -7 0 -18 -22 -6 -71 38 -33 31 -36
38 -25 51 18 20 23 20 15 0z m-474 -28 c7 4 8 2 4 -5 -9 -13 -26 -5 -25 12 0
9 2 8 6 -1 2 -6 10 -9 15 -6z m29 -9 c-10 -9 -11 -8 -5 6 3 10 9 15 12 12 3
-3 0 -11 -7 -18z m289 -17 c6 -11 8 -20 6 -20 -3 0 -10 9 -16 20 -6 11 -8 20
-6 20 3 0 10 -9 16 -20z m-241 -40 c-6 -5 -18 -6 -26 -3 -19 8 -16 11 13 11
17 0 22 -3 13 -8z m814 -64 c36 -31 67 -52 71 -49 3 4 6 2 6 -4 0 -10 -24 -34
-46 -46 -7 -4 -14 2 -17 13 -3 13 -1 18 6 13 7 -3 3 4 -8 16 -27 32 -101 90
-90 71 8 -13 7 -13 -8 -1 -21 17 -47 -1 -47 -31 0 -21 81 -103 113 -117 16 -6
15 -9 -8 -31 -15 -15 -24 -18 -20 -9 4 10 -8 30 -32 55 -20 21 -31 30 -24 19
8 -11 -5 -1 -28 22 -22 23 -41 50 -40 60 0 16 1 16 10 -2 8 -17 9 -16 6 7 -2
15 -1 25 3 23 4 -2 12 6 19 18 22 42 62 34 134 -27z m-238 14 c-3 -5 1 -10 10
-10 9 0 13 -5 10 -10 -5 -8 -11 -7 -21 1 -12 10 -11 29 2 29 3 0 2 -4 -1 -10z
m-2209 -24 c11 -8 26 -33 34 -56 12 -36 11 -45 -3 -75 -18 -38 -69 -75 -104
-75 -37 0 -80 45 -85 89 -2 23 1 37 6 34 5 -4 6 2 2 13 -4 10 -4 15 0 11 9 -9
55 33 49 44 -3 4 0 11 6 15 8 5 9 3 4 -6 -6 -10 -4 -12 9 -7 10 4 30 8 44 8
27 1 27 1 -3 9 -28 7 -28 8 -5 9 14 0 35 -5 46 -13z m1771 -23 c-3 -10 -5 -4
-5 12 0 17 2 24 5 18 2 -7 2 -21 0 -30z m30 5 c-3 -7 -5 -2 -5 12 0 14 2 19 5
13 2 -7 2 -19 0 -25z m628 -8 c10 -11 16 -20 13 -20 -3 0 -13 9 -23 20 -10 11
-16 20 -13 20 3 0 13 -9 23 -20z m-585 -4 c0 -2 -7 -7 -16 -10 -8 -3 -12 -2
-9 4 6 10 25 14 25 6z m165 -35 c3 -5 1 -12 -5 -16 -5 -3 -10 1 -10 9 0 18 6
21 15 7z m225 -6 c0 -6 12 -22 27 -36 14 -13 22 -17 18 -9 -8 13 -6 13 7 2 9
-8 15 -19 12 -26 -6 -16 33 -66 52 -66 8 0 14 -8 14 -17 0 -14 -2 -15 -9 -4
-7 11 -10 9 -15 -7 -15 -46 -105 -76 -144 -48 -13 9 -14 88 -1 80 5 -3 6 -12
3 -22 -5 -14 -4 -15 5 -2 15 22 14 25 -14 38 -30 14 -46 16 -26 3 9 -6 5 -8
-13 -8 -27 0 -35 12 -13 20 6 3 2 6 -9 6 -16 1 -22 7 -20 25 1 30 22 28 68 -8
22 -16 44 -26 53 -22 14 5 14 9 0 36 -8 16 -20 30 -25 30 -7 0 -8 38 -1 46 6
6 31 -2 31 -11z m-348 -35 c-2 -16 -8 -27 -13 -24 -5 3 -8 8 -6 12 2 4 7 15
10 25 10 26 14 20 9 -13z m-1788 5 c-4 -8 -8 -15 -10 -15 -2 0 -4 7 -4 15 0 8
4 15 10 15 5 0 7 -7 4 -15z m50 -11 c3 -9 -2 -38 -11 -65 -14 -38 -15 -51 -5
-61 9 -9 16 -7 32 7 11 10 20 23 19 29 -3 27 2 35 23 31 12 -3 26 -10 32 -16
8 -9 7 -10 -4 -4 -13 8 -13 7 -1 -8 12 -15 11 -17 -3 -17 -21 0 -51 -56 -33
-63 6 -3 2 -6 -9 -6 -20 -1 -61 -47 -56 -63 4 -15 -44 -8 -68 9 -35 24 -49 44
-50 69 0 27 17 41 55 46 28 3 30 6 33 53 1 28 5 56 7 63 6 17 32 15 39 -4z
m1663 -31 c-3 -10 -5 -4 -5 12 0 17 2 24 5 18 2 -7 2 -21 0 -30z m100 5 c-3
-8 -6 -5 -6 6 -1 11 2 17 5 13 3 -3 4 -12 1 -19z m-1484 5 c-7 -2 -19 -2 -25
0 -7 3 -2 5 12 5 14 0 19 -2 13 -5z m1595 -18 c-3 -3 -9 2 -12 12 -6 14 -5 15
5 6 7 -7 10 -15 7 -18z m72 -5 c-6 -11 -13 -20 -16 -20 -2 0 0 9 6 20 6 11 13
20 16 20 2 0 0 -9 -6 -20z m-174 -35 c-9 -14 -14 -30 -11 -35 8 -13 -5 -13
-25 0 -12 8 -12 10 3 16 10 4 16 12 13 20 -3 7 3 15 12 17 9 3 19 5 21 6 2 0
-4 -10 -13 -24z m-1826 -10 c0 -8 -7 -15 -15 -15 -13 0 -14 3 -3 15 16 18 18
18 18 0z m1986 0 c7 -5 8 -12 4 -15 -9 -6 24 -51 37 -50 4 0 8 -12 8 -26 1
-15 9 -32 18 -39 24 -17 21 -30 -13 -59 -42 -35 -100 -50 -119 -31 -18 18 -25
68 -8 59 7 -4 8 -3 4 2 -5 5 -19 9 -30 9 -12 0 -22 5 -22 12 0 17 -15 29 -16
12 0 -8 -5 -3 -10 10 -7 17 -6 27 4 35 7 6 19 20 27 31 14 19 14 19 -6 2 -15
-13 -21 -14 -21 -4 0 8 13 19 29 25 21 8 27 7 22 -1 -3 -7 0 -5 8 4 13 16 19
19 39 19 5 0 8 4 5 9 -8 12 26 9 40 -4z m-223 -40 c-3 -9 -8 -14 -10 -11 -3 3
-2 9 2 15 9 16 15 13 8 -4z m-1527 -29 c9 -3 21 -3 26 1 7 3 8 1 4 -5 -4 -7
-1 -12 6 -13 10 0 10 -2 1 -6 -19 -7 -95 -151 -87 -164 3 -6 17 -9 30 -6 20 3
24 0 24 -20 l0 -25 -42 25 c-24 13 -62 34 -85 47 -36 20 -41 26 -30 39 9 12 9
13 0 7 -7 -4 -13 -5 -13 -2 0 3 9 10 20 16 11 6 20 7 19 3 -1 -4 2 -18 6 -31
6 -18 10 -20 21 -11 12 10 13 8 8 -7 -9 -24 0 -16 16 15 9 17 9 21 0 16 -6 -4
-2 12 10 34 11 23 19 45 16 50 -3 4 1 8 9 8 11 0 9 -9 -6 -39 -11 -21 -17 -38
-14 -38 13 0 38 70 38 105 -1 22 1 33 3 23 3 -9 12 -19 20 -22z m1553 -54
c-12 -35 -9 -73 6 -73 6 0 13 10 17 23 4 17 6 12 7 -19 1 -23 -4 -45 -11 -49
-7 -4 -8 -3 -4 4 4 7 2 12 -3 12 -15 0 -14 -67 0 -76 8 -4 3 -12 -12 -20 -30
-17 -59 -18 -59 -2 0 6 -6 19 -12 28 -7 9 -3 5 10 -8 12 -13 22 -19 22 -14 0
17 -48 54 -55 42 -5 -8 -12 -7 -24 4 -10 9 -21 13 -24 9 -4 -3 -7 -2 -7 4 0 6
7 14 16 17 8 3 12 2 9 -4 -3 -6 -1 -10 5 -10 18 0 6 24 -18 35 -12 5 -22 15
-22 22 0 7 -9 13 -19 13 -11 0 -23 5 -27 12 -4 6 -3 8 4 4 14 -9 63 14 55 27
-3 5 0 7 8 5 8 -3 14 -13 14 -23 0 -10 11 -25 25 -34 23 -15 24 -15 17 3 -6
15 -3 18 18 14 18 -4 26 0 31 15 4 12 2 23 -3 24 -6 2 -19 11 -29 19 -17 14
-17 15 -1 10 21 -7 49 3 41 15 -3 5 3 6 12 2 13 -5 15 -3 9 8 -6 10 -5 11 4 3
8 -7 8 -18 0 -42z m-1388 -66 c0 -22 4 -61 7 -86 l7 -45 24 64 c20 51 22 67
13 82 -13 20 -16 41 -4 24 12 -18 59 -34 83 -29 22 4 23 4 4 -6 -16 -8 -11 -9
20 -5 31 4 37 3 25 -5 -12 -9 -10 -11 11 -6 31 7 102 -12 94 -25 -4 -5 0 -9 7
-9 10 0 10 -2 1 -8 -6 -4 -17 -20 -23 -36 -9 -24 -7 -31 7 -42 17 -13 17 -14
-4 -20 -23 -6 -42 -62 -28 -83 8 -14 14 -14 -74 9 -87 22 -98 30 -72 54 18 16
20 16 37 -6 23 -28 50 -26 58 5 7 28 -8 44 -28 28 -18 -15 -26 -3 -19 31 4 23
8 25 23 15 10 -6 16 -15 14 -19 -3 -4 0 -8 6 -8 6 0 14 8 17 17 6 15 7 15 13
-1 4 -12 9 -5 16 23 l11 41 -34 6 c-20 4 -39 2 -48 -6 -18 -15 -36 -4 -28 17
4 10 2 14 -4 10 -6 -4 -13 -1 -16 5 -3 10 -9 10 -23 2 -20 -12 -77 -142 -70
-160 4 -10 -2 -10 -24 -3 -16 6 -31 17 -34 25 -3 9 -1 12 4 9 6 -4 10 8 9 27
0 28 -2 30 -9 13 -6 -13 -8 2 -5 45 l4 65 -24 -50 c-14 -27 -25 -60 -25 -72 0
-24 -15 -29 -40 -13 -11 7 -11 10 -2 10 7 0 21 19 31 43 64 146 60 140 76 127
9 -7 15 -30 16 -54z m1162 -19 c-5 -33 21 -153 39 -174 7 -9 2 -14 -19 -19
-15 -4 -33 -11 -39 -16 -7 -5 -16 -3 -24 6 -10 13 -8 15 9 11 33 -6 25 12 -28
68 -47 49 -49 50 -44 22 3 -17 15 -41 27 -55 14 -16 15 -20 4 -11 -22 16 -23
3 -3 -26 13 -19 13 -21 -8 -27 -12 -3 -26 0 -32 6 -7 7 -7 9 1 5 7 -4 11 6 12
25 1 25 -2 29 -9 18 -8 -11 -9 -8 -4 13 4 21 3 27 -6 21 -9 -5 -10 1 -5 20 4
16 3 25 -3 22 -12 -8 -23 37 -14 60 4 12 3 15 -5 10 -7 -4 -12 -2 -12 3 0 26
37 7 89 -46 31 -31 59 -56 64 -55 4 1 7 -5 7 -15 0 -9 2 -14 5 -11 4 3 3 18
-1 33 -5 20 -9 24 -16 13 -6 -8 -7 -1 -3 22 5 26 4 31 -4 20 -9 -13 -11 -12
-12 5 -1 11 -2 26 -2 32 1 7 -2 11 -6 9 -3 -2 -15 2 -25 9 -17 13 -16 15 15
24 55 15 58 14 52 -22z m-738 -37 c-3 -5 1 -10 9 -10 8 0 24 -12 35 -26 49
-63 3 -184 -70 -184 -27 0 -99 26 -99 36 0 3 5 2 12 -2 7 -5 9 -2 5 9 -3 8 1
21 9 28 12 10 16 9 21 -9 3 -12 15 -24 26 -28 32 -10 57 28 59 90 l1 51 4 -44
c5 -53 -11 -95 -40 -109 -12 -6 -17 -11 -11 -11 7 -1 22 7 34 17 27 22 40 115
20 151 -16 30 -71 26 -85 -6 -11 -25 -20 -29 -31 -12 -3 6 0 15 7 20 8 5 10 9
5 9 -5 0 -1 9 9 20 19 21 92 30 80 10z m522 -25 c63 -55 55 -152 -14 -181 -30
-13 -41 -13 -62 -3 -14 7 -30 13 -34 13 -27 3 -38 67 -28 168 1 4 11 12 22 19
15 7 19 8 15 0 -5 -7 -1 -9 8 -5 9 3 14 10 11 14 -13 21 52 1 82 -25z m-720 3
c-3 -8 -6 -5 -6 6 -1 11 2 17 5 13 3 -3 4 -12 1 -19z m1361 -3 c-3 -3 -9 2
-12 12 -6 14 -5 15 5 6 7 -7 10 -15 7 -18z m-791 -82 c-3 -10 -5 -4 -5 12 0
17 2 24 5 18 2 -7 2 -21 0 -30z m309 5 l29 -33 -32 29 c-31 28 -38 36 -30 36
2 0 16 -15 33 -32z m-429 -80 c19 -25 5 -50 -25 -46 -18 2 -28 11 -33 28 -6
21 -7 22 -9 5 -1 -12 -4 -15 -7 -7 -14 34 51 52 74 20z m513 -33 c19 -19 32
-35 29 -35 -3 0 -20 16 -39 35 -19 19 -32 35 -29 35 3 0 20 -16 39 -35z"/>
<path d="M2300 3981 c-15 -30 -12 -38 6 -13 8 12 25 21 37 21 l22 -2 -23 -4
c-12 -2 -26 -12 -31 -21 -11 -23 -20 -132 -9 -126 4 3 8 0 8 -5 0 -20 39 -11
54 11 19 27 22 128 4 146 -18 18 -56 14 -68 -7z"/>
<path d="M2283 3900 c0 -25 2 -35 4 -22 2 12 2 32 0 45 -2 12 -4 2 -4 -23z"/>
<path d="M2389 3823 c-13 -16 -12 -17 4 -4 9 7 17 15 17 17 0 8 -8 3 -21 -13z"/>
<path d="M2557 3924 c-3 -3 -3 -13 0 -22 4 -10 2 -13 -5 -8 -7 4 -12 2 -12 -3
0 -6 5 -11 11 -11 5 0 8 -4 5 -8 -3 -5 1 -9 9 -9 10 0 15 10 15 28 0 27 -12
44 -23 33z"/>
<path d="M1488 3853 c-10 -2 -18 -9 -18 -14 0 -6 3 -8 8 -6 4 3 8 -6 9 -20 2
-36 15 -45 41 -27 24 17 29 43 10 62 -12 12 -20 13 -50 5z"/>
<path d="M3067 3748 c-20 -35 -12 -48 34 -48 43 0 49 49 8 70 -24 13 -22 14
-42 -22z"/>
<path d="M1200 3696 c-13 -13 -13 -59 0 -51 5 3 7 0 4 -9 -3 -9 9 -29 31 -51
28 -28 42 -36 59 -31 13 3 27 13 30 22 8 20 -24 94 -49 114 -21 17 -61 20 -75
6z"/>
<path d="M3245 3647 c-17 -25 -9 -46 21 -53 28 -7 54 10 54 36 0 38 -52 50
-75 17z"/>
<path d="M3190 3570 l-21 -29 21 -21 c27 -27 46 -25 66 5 16 25 16 27 -6 50
-30 32 -34 31 -60 -5z m40 16 c0 -2 -7 -7 -16 -10 -8 -3 -12 -2 -9 4 6 10 25
14 25 6z"/>
<path d="M1026 3513 c-11 -11 -6 -24 6 -17 7 5 9 2 5 -9 -4 -12 -2 -14 10 -10
11 4 14 2 9 -5 -4 -7 -1 -12 8 -12 25 0 19 36 -8 48 -13 6 -27 8 -30 5z"/>
<path d="M1106 3455 c-4 -11 1 -15 19 -15 28 0 33 15 9 24 -21 8 -21 8 -28 -9z"/>
<path d="M3480 3475 c0 -8 7 -15 15 -15 8 0 15 7 15 15 0 8 -7 15 -15 15 -8 0
-15 -7 -15 -15z"/>
<path d="M826 3364 c-24 -24 -19 -43 22 -85 43 -42 84 -58 107 -39 27 22 17
56 -30 99 -48 44 -74 51 -99 25z"/>
<path d="M584 2976 c-8 -22 3 -33 18 -18 9 9 9 15 0 24 -9 9 -13 7 -18 -6z"/>
<path d="M3804 2866 c-36 -16 -47 -30 -52 -65 -6 -44 44 -54 114 -22 31 14 43
26 47 47 3 16 1 35 -5 42 -14 16 -65 15 -104 -2z m100 -4 c2 -4 -13 -6 -35 -4
-21 2 -39 6 -39 8 0 7 69 4 74 -4z m-85 -5 c-2 -2 -17 -11 -34 -21 l-30 -17
24 20 c13 12 28 21 34 21 6 0 8 -1 6 -3z"/>
<path d="M3730 2773 c0 -5 10 -18 23 -29 l22 -19 -20 25 c-11 14 -21 27 -22
29 -2 2 -3 0 -3 -6z"/>
<path d="M3803 2723 c9 -2 23 -2 30 0 6 3 -1 5 -18 5 -16 0 -22 -2 -12 -5z"/>
<path d="M568 2793 c6 -2 18 -2 25 0 6 3 1 5 -13 5 -14 0 -19 -2 -12 -5z"/>
<path d="M504 2745 c-4 -8 -10 -12 -15 -9 -15 9 -10 -34 6 -50 9 -8 23 -12 32
-9 11 5 14 3 8 -6 -6 -10 -3 -11 13 -2 11 6 38 11 60 11 21 0 42 3 45 6 13 13
-14 42 -53 58 -51 20 -89 21 -96 1z m7 -52 c13 -16 12 -17 -3 -4 -10 7 -18 15
-18 17 0 8 8 3 21 -13z"/>
<path d="M570 2660 c-9 -6 -10 -10 -3 -10 6 0 15 5 18 10 8 12 4 12 -15 0z"/>
<path d="M3790 2581 c0 -6 4 -13 10 -16 6 -3 7 1 4 9 -7 18 -14 21 -14 7z"/>
<path d="M579 2253 l-24 -28 28 24 c25 23 32 31 24 31 -2 0 -14 -12 -28 -27z"/>
<path d="M430 2182 c0 -26 4 -30 33 -35 40 -6 43 -3 31 31 -7 19 -17 28 -37
30 -24 3 -27 0 -27 -26z"/>
<path d="M412 2160 c0 -14 2 -19 5 -12 2 6 2 18 0 25 -3 6 -5 1 -5 -13z"/>
<path d="M514 2167 c3 -10 6 -21 6 -23 0 -2 17 -3 38 -3 33 2 34 2 7 6 -16 2
-36 12 -44 21 -13 16 -13 16 -7 -1z"/>
<path d="M3940 2203 c0 -25 28 -63 45 -63 8 0 18 12 21 26 5 20 9 23 16 12 6
-9 8 -6 6 12 -3 22 -9 25 -45 28 -36 3 -43 0 -43 -15z m73 0 c-7 -2 -21 -2
-30 0 -10 3 -4 5 12 5 17 0 24 -2 18 -5z"/>
<path d="M525 2003 c-41 -9 -75 -26 -69 -34 3 -5 0 -9 -5 -9 -16 0 -13 -26 5
-44 9 -10 31 -16 57 -15 37 1 39 2 17 10 -21 7 -18 8 13 4 21 -2 35 0 32 5 -3
5 6 12 20 16 35 9 35 51 -1 64 -26 10 -35 11 -69 3z m-37 -84 c11 0 12 -2 4
-6 -15 -6 -42 14 -42 31 0 6 5 3 11 -6 5 -10 18 -18 27 -19z"/>
<path d="M370 1966 c0 -2 8 -10 18 -17 15 -13 16 -12 3 4 -13 16 -21 21 -21
13z"/>
<path d="M3930 1806 c0 -2 8 -10 18 -17 15 -13 16 -12 3 4 -13 16 -21 21 -21
13z"/>
<path d="M1040 1123 c-23 -9 -51 -35 -71 -67 -14 -23 -15 -33 -6 -50 22 -39
35 -43 63 -20 10 8 13 13 7 9 -24 -12 -13 3 15 21 19 13 24 13 17 3 -5 -8 0
-4 11 9 13 15 19 32 16 45 -4 15 -2 18 9 11 10 -6 10 -2 -2 16 -17 26 -34 32
-59 23z"/>
<path d="M3332 968 c-7 -7 -12 -25 -12 -42 0 -16 3 -26 6 -23 4 3 15 2 25 -4
17 -8 19 -6 19 18 -1 38 -23 66 -38 51z"/>
<path d="M3383 915 c0 -8 4 -12 9 -9 4 3 8 9 8 15 0 5 -4 9 -8 9 -5 0 -9 -7
-9 -15z"/>
<path d="M3280 891 c0 -6 4 -13 10 -16 6 -3 7 1 4 9 -7 18 -14 21 -14 7z"/>
<path d="M1142 897 c-12 -14 -11 -35 1 -54 6 -10 14 -10 37 2 37 19 45 32 30
50 -15 18 -54 19 -68 2z"/>
<path d="M3110 923 c-30 -11 -42 -26 -28 -34 7 -4 19 -2 28 4 13 10 13 10 3
-3 -12 -16 -14 -60 -2 -60 4 0 11 18 17 40 6 25 6 40 0 40 -5 0 -6 5 -3 10 7
11 7 11 -15 3z"/>
<path d="M3070 871 c0 -6 5 -13 10 -16 6 -3 10 1 10 9 0 9 -4 16 -10 16 -5 0
-10 -4 -10 -9z"/>
<path d="M3140 871 c0 -6 4 -12 8 -15 5 -3 9 1 9 9 0 8 -4 15 -9 15 -4 0 -8
-4 -8 -9z"/>
<path d="M3142 818 c-22 -22 -14 -45 18 -50 17 -3 34 0 37 5 4 6 0 7 -8 3 -8
-4 -7 -1 3 6 12 10 13 19 7 31 -12 20 -40 22 -57 5z"/>
<path d="M3090 756 c0 -2 8 -10 18 -17 15 -13 16 -12 3 4 -13 16 -21 21 -21
13z"/>
<path d="M2914 752 c3 -5 0 -12 -6 -15 -10 -3 -8 -10 6 -26 25 -28 36 -27 36
4 0 19 -4 23 -17 18 -10 -4 -14 -2 -9 5 3 6 1 14 -5 18 -7 4 -9 3 -5 -4z"/>
<path d="M1828 733 c7 -3 16 -2 19 1 4 3 -2 6 -13 5 -11 0 -14 -3 -6 -6z"/>
<path d="M1784 594 c-4 -16 -12 -33 -18 -37 -7 -6 -6 -7 3 -5 14 4 35 57 26
66 -2 2 -7 -9 -11 -24z"/>
<path d="M1679 583 c-13 -16 -12 -17 4 -4 16 13 21 21 13 21 -2 0 -10 -8 -17
-17z"/>
<path d="M1929 693 c-13 -16 -12 -17 4 -4 16 13 21 21 13 21 -2 0 -10 -8 -17
-17z"/>
<path d="M2442 678 c-16 -16 -15 -106 1 -138 16 -31 56 -39 74 -14 7 10 13 41
12 68 0 40 -2 47 -10 31 -8 -17 -9 -16 -6 7 2 15 0 25 -5 22 -5 -3 -8 2 -6 11
4 22 -42 31 -60 13z m72 -142 c-3 -9 -10 -16 -15 -16 -5 0 -4 9 3 20 14 22 21
20 12 -4z"/>
<path d="M2214 519 c-10 -17 13 -36 27 -22 12 12 4 33 -11 33 -5 0 -12 -5 -16
-11z"/>
<path d="M3658 1496 c-27 -20 -22 -51 14 -81 44 -37 77 -49 105 -36 33 15 30
54 -8 85 -17 14 -35 24 -40 20 -5 -3 -9 -1 -9 5 0 6 -7 8 -15 5 -8 -4 -15 -1
-15 5 0 14 -11 13 -32 -3z"/>
<path d="M3757 1273 c-10 -9 -9 -23 2 -23 5 0 11 7 15 15 5 15 -5 20 -17 8z"/>
</g>
</svg>
